# xmcd
#
# Track frame offsets: 
#        150
#        16687
#        31987
#        47912
#        62037
#        79900
#        96950
#        114262
#        133487
#        148400
#        164837
#        183687
#
# Disc length: 2620 seconds
#
# Revision: 0
# Processed by: cddbd v1.5.2PL0 Copyright (c) Steve Scherf et al.
# Submitted via: ExactAudioCopyFreeDBPlugin 1.0
#
DISCID=b20a3a0c
DTITLE=徐小鳳 - 徐小鳳全新歌集
DYEAR=1982
DGENRE=廣東歌
TTITLE0=星星問
TTITLE1=愛和夢
TTITLE2=隨想曲
TTITLE3=小鎮之歌
TTITLE4=破曉時分
TTITLE5=少年人
TTITLE6=星光的背影
TTITLE7=三分‧七分
TTITLE8=黃昏放牛
TTITLE9=嘆息
TTITLE10=莫忘記
TTITLE11=不想講再會
EXTD=
EXTT0=
EXTT1=
EXTT2=
EXTT3=
EXTT4=
EXTT5=
EXTT6=
EXTT7=
EXTT8=
EXTT9=
EXTT10=
EXTT11=
PLAYORDER=
